# xmcd
#
# Track frame offsets:
#	150
#	21650
#	36781
#	55752
#	72914
#	91750
#	111267
#	127946
#	150049
#	166017
#	183503
#	205153
#	233007
#
# Disc length: 3908 seconds
#
# Revision: 1
# Processed by: cddbd v1.5.2PL0 Copyright (c) Steve Scherf et al.
# Submitted via: audiograbber 1.83.01
#
DISCID=9b0f420d
DTITLE=Various Artist - CB60469
DYEAR=2011
DGENRE=Country
TTITLE0=Keith Urban - Long Hot Summer
TTITLE1=Phil Vassar - Let's Get Together
TTITLE2=Josh Kelly - Gone Like That
TTITLE3=Jennette McCurdy - Generation Love
TTITLE4=Randy Houser - In God's Time
TTITLE5=Scotty McCreary - I Love Yoy This Big
TTITLE6=John Rich - For The Kids
TTITLE7=Randy Rogers Band - Interstate
TTITLE8=Sunny Sweeney - Staying's Worse Than Leaving
TTITLE9=Jaron and The Long Road To Love - It's A Good Thing
TTITLE10=Andy Griggs - Can I Get An Amen
TTITLE11=Jason Michael Carroll - Numbers
TTITLE12=Data Track - Data Track
EXTD=
EXTT0=
EXTT1=
EXTT2=
EXTT3=
EXTT4=
EXTT5=
EXTT6=
EXTT7=
EXTT8=
EXTT9=
EXTT10=
EXTT11=
EXTT12=
PLAYORDER=
